<svg xmlns="http://www.w3.org/2000/svg" xmlns:xlink="http://www.w3.org/1999/xlink" width="280" zoomAndPan="magnify" viewBox="0 0 210 209.999996" height="280" preserveAspectRatio="xMidYMid meet" version="1.0"><defs><g/></defs><g fill="#000000" fill-opacity="1"><g transform="translate(46.194194, 112.915682)"><g><path d="M 9.171875 0.296875 C 6.617188 0.296875 4.578125 -0.429688 3.046875 -1.890625 C 1.523438 -3.359375 0.765625 -5.332031 0.765625 -7.8125 L 0.765625 -18.71875 C 0.765625 -21.195312 1.523438 -23.171875 3.046875 -24.640625 C 4.578125 -26.109375 6.617188 -26.84375 9.171875 -26.84375 C 11.722656 -26.84375 13.765625 -26.109375 15.296875 -24.640625 C 16.828125 -23.171875 17.59375 -21.195312 17.59375 -18.71875 L 17.59375 -7.8125 C 17.59375 -5.332031 16.828125 -3.359375 15.296875 -1.890625 C 13.765625 -0.429688 11.722656 0.296875 9.171875 0.296875 Z M 9.171875 -5.796875 C 9.578125 -5.796875 9.894531 -5.945312 10.125 -6.25 C 10.351562 -6.550781 10.46875 -6.96875 10.46875 -7.5 L 10.46875 -19.03125 C 10.46875 -19.5625 10.351562 -19.976562 10.125 -20.28125 C 9.894531 -20.582031 9.578125 -20.734375 9.171875 -20.734375 C 8.765625 -20.734375 8.445312 -20.582031 8.21875 -20.28125 C 8 -19.976562 7.890625 -19.5625 7.890625 -19.03125 L 7.890625 -7.5 C 7.890625 -6.96875 8 -6.550781 8.21875 -6.25 C 8.445312 -5.945312 8.765625 -5.796875 9.171875 -5.796875 Z M 9.171875 -5.796875 "/></g></g></g><g fill="#000000" fill-opacity="1"><g transform="translate(68.333629, 112.915682)"><g><path d="M 11.984375 -25.96875 C 11.984375 -26.144531 12.03125 -26.28125 12.125 -26.375 C 12.226562 -26.476562 12.367188 -26.53125 12.546875 -26.53125 L 18.453125 -26.53125 C 18.628906 -26.53125 18.769531 -26.476562 18.875 -26.375 C 18.976562 -26.28125 19.03125 -26.144531 19.03125 -25.96875 L 19.03125 -0.5625 C 19.03125 -0.382812 18.976562 -0.242188 18.875 -0.140625 C 18.769531 -0.046875 18.628906 0 18.453125 0 L 11.71875 0 C 11.382812 0 11.179688 -0.164062 11.109375 -0.5 L 8.21875 -11.984375 C 8.195312 -12.054688 8.144531 -12.09375 8.0625 -12.09375 C 7.988281 -12.09375 7.953125 -12.039062 7.953125 -11.9375 L 8.03125 -0.5625 C 8.03125 -0.382812 7.976562 -0.242188 7.875 -0.140625 C 7.78125 -0.046875 7.644531 0 7.46875 0 L 1.546875 0 C 1.367188 0 1.226562 -0.046875 1.125 -0.140625 C 1.03125 -0.242188 0.984375 -0.382812 0.984375 -0.5625 L 0.984375 -25.96875 C 0.984375 -26.144531 1.03125 -26.28125 1.125 -26.375 C 1.226562 -26.476562 1.367188 -26.53125 1.546875 -26.53125 L 8.21875 -26.53125 C 8.550781 -26.53125 8.753906 -26.367188 8.828125 -26.046875 L 11.75 -14.515625 C 11.769531 -14.410156 11.816406 -14.359375 11.890625 -14.359375 C 11.972656 -14.359375 12.015625 -14.410156 12.015625 -14.515625 Z M 11.984375 -25.96875 "/></g></g></g><g fill="#000000" fill-opacity="1"><g transform="translate(92.141058, 112.915682)"><g/></g></g><g fill="#000000" fill-opacity="1"><g transform="translate(103.514342, 112.915682)"><g><path d="M 16.140625 -21 C 16.140625 -20.820312 16.085938 -20.679688 15.984375 -20.578125 C 15.890625 -20.484375 15.753906 -20.4375 15.578125 -20.4375 L 8.34375 -20.4375 C 8.1875 -20.4375 8.109375 -20.359375 8.109375 -20.203125 L 8.109375 -16.5625 C 8.109375 -16.414062 8.1875 -16.34375 8.34375 -16.34375 L 12.09375 -16.34375 C 12.269531 -16.34375 12.40625 -16.289062 12.5 -16.1875 C 12.601562 -16.082031 12.65625 -15.941406 12.65625 -15.765625 L 12.65625 -10.796875 C 12.65625 -10.617188 12.601562 -10.476562 12.5 -10.375 C 12.40625 -10.28125 12.269531 -10.234375 12.09375 -10.234375 L 8.34375 -10.234375 C 8.1875 -10.234375 8.109375 -10.15625 8.109375 -10 L 8.109375 -0.5625 C 8.109375 -0.382812 8.054688 -0.242188 7.953125 -0.140625 C 7.859375 -0.046875 7.722656 0 7.546875 0 L 1.546875 0 C 1.367188 0 1.226562 -0.046875 1.125 -0.140625 C 1.03125 -0.242188 0.984375 -0.382812 0.984375 -0.5625 L 0.984375 -25.96875 C 0.984375 -26.144531 1.03125 -26.28125 1.125 -26.375 C 1.226562 -26.476562 1.367188 -26.53125 1.546875 -26.53125 L 15.578125 -26.53125 C 15.753906 -26.53125 15.890625 -26.476562 15.984375 -26.375 C 16.085938 -26.28125 16.140625 -26.144531 16.140625 -25.96875 Z M 16.140625 -21 "/></g></g></g><g fill="#000000" fill-opacity="1"><g transform="translate(123.682513, 112.915682)"><g><path d="M 1.546875 0 C 1.367188 0 1.226562 -0.046875 1.125 -0.140625 C 1.03125 -0.242188 0.984375 -0.382812 0.984375 -0.5625 L 0.984375 -25.96875 C 0.984375 -26.144531 1.03125 -26.28125 1.125 -26.375 C 1.226562 -26.476562 1.367188 -26.53125 1.546875 -26.53125 L 7.546875 -26.53125 C 7.722656 -26.53125 7.859375 -26.476562 7.953125 -26.375 C 8.054688 -26.28125 8.109375 -26.144531 8.109375 -25.96875 L 8.109375 -0.5625 C 8.109375 -0.382812 8.054688 -0.242188 7.953125 -0.140625 C 7.859375 -0.046875 7.722656 0 7.546875 0 Z M 1.546875 0 "/></g></g></g><g fill="#000000" fill-opacity="1"><g transform="translate(136.572159, 112.915682)"><g><path d="M 11.328125 0 C 11.003906 0 10.804688 -0.164062 10.734375 -0.5 L 8.421875 -10 C 8.367188 -10.132812 8.316406 -10.203125 8.265625 -10.203125 C 8.160156 -10.203125 8.109375 -10.125 8.109375 -9.96875 L 8.109375 -0.5625 C 8.109375 -0.382812 8.054688 -0.242188 7.953125 -0.140625 C 7.859375 -0.046875 7.722656 0 7.546875 0 L 1.546875 0 C 1.367188 0 1.226562 -0.046875 1.125 -0.140625 C 1.03125 -0.242188 0.984375 -0.382812 0.984375 -0.5625 L 0.984375 -25.96875 C 0.984375 -26.144531 1.03125 -26.28125 1.125 -26.375 C 1.226562 -26.476562 1.367188 -26.53125 1.546875 -26.53125 L 10.078125 -26.53125 C 11.597656 -26.53125 12.941406 -26.171875 14.109375 -25.453125 C 15.285156 -24.734375 16.203125 -23.734375 16.859375 -22.453125 C 17.523438 -21.179688 17.859375 -19.722656 17.859375 -18.078125 C 17.859375 -16.691406 17.613281 -15.445312 17.125 -14.34375 C 16.644531 -13.25 15.953125 -12.359375 15.046875 -11.671875 C 14.941406 -11.597656 14.90625 -11.5 14.9375 -11.375 L 18 -0.640625 C 18.03125 -0.585938 18.046875 -0.523438 18.046875 -0.453125 C 18.046875 -0.148438 17.867188 0 17.515625 0 Z M 8.34375 -20.4375 C 8.1875 -20.4375 8.109375 -20.359375 8.109375 -20.203125 L 8.109375 -15.84375 C 8.109375 -15.695312 8.1875 -15.625 8.34375 -15.625 L 8.828125 -15.625 C 9.390625 -15.625 9.847656 -15.832031 10.203125 -16.25 C 10.554688 -16.664062 10.734375 -17.25 10.734375 -18 C 10.734375 -18.789062 10.5625 -19.394531 10.21875 -19.8125 C 9.875 -20.226562 9.410156 -20.4375 8.828125 -20.4375 Z M 8.34375 -20.4375 "/></g></g></g><g fill="#000000" fill-opacity="1"><g transform="translate(158.939046, 112.915682)"><g><path d="M 8.90625 0.296875 C 7.289062 0.296875 5.875 -0.00390625 4.65625 -0.609375 C 3.445312 -1.210938 2.503906 -2.050781 1.828125 -3.125 C 1.160156 -4.195312 0.828125 -5.429688 0.828125 -6.828125 L 0.828125 -8 C 0.828125 -8.175781 0.878906 -8.3125 0.984375 -8.40625 C 1.085938 -8.507812 1.226562 -8.5625 1.40625 -8.5625 L 7.3125 -8.5625 C 7.488281 -8.5625 7.628906 -8.507812 7.734375 -8.40625 C 7.835938 -8.3125 7.890625 -8.175781 7.890625 -8 L 7.890625 -7.171875 C 7.890625 -6.765625 7.988281 -6.429688 8.1875 -6.171875 C 8.382812 -5.921875 8.640625 -5.796875 8.953125 -5.796875 C 9.253906 -5.796875 9.503906 -5.910156 9.703125 -6.140625 C 9.898438 -6.367188 10 -6.660156 10 -7.015625 C 10 -7.441406 9.796875 -7.863281 9.390625 -8.28125 C 8.992188 -8.695312 8.148438 -9.359375 6.859375 -10.265625 C 5.597656 -11.148438 4.554688 -11.957031 3.734375 -12.6875 C 2.910156 -13.425781 2.195312 -14.351562 1.59375 -15.46875 C 0.988281 -16.582031 0.6875 -17.859375 0.6875 -19.296875 C 0.6875 -20.785156 1.019531 -22.097656 1.6875 -23.234375 C 2.351562 -24.367188 3.300781 -25.253906 4.53125 -25.890625 C 5.757812 -26.523438 7.164062 -26.84375 8.75 -26.84375 C 10.375 -26.84375 11.796875 -26.523438 13.015625 -25.890625 C 14.242188 -25.253906 15.191406 -24.367188 15.859375 -23.234375 C 16.535156 -22.097656 16.875 -20.785156 16.875 -19.296875 L 16.875 -18.453125 C 16.875 -18.273438 16.820312 -18.132812 16.71875 -18.03125 C 16.613281 -17.9375 16.472656 -17.890625 16.296875 -17.890625 L 10.421875 -17.890625 C 10.242188 -17.890625 10.101562 -17.9375 10 -18.03125 C 9.90625 -18.132812 9.859375 -18.273438 9.859375 -18.453125 L 9.859375 -19.453125 C 9.859375 -19.828125 9.753906 -20.132812 9.546875 -20.375 C 9.347656 -20.613281 9.082031 -20.734375 8.75 -20.734375 C 8.425781 -20.734375 8.164062 -20.601562 7.96875 -20.34375 C 7.78125 -20.09375 7.6875 -19.753906 7.6875 -19.328125 C 7.6875 -18.828125 7.890625 -18.34375 8.296875 -17.875 C 8.703125 -17.40625 9.515625 -16.726562 10.734375 -15.84375 C 12.347656 -14.65625 13.566406 -13.691406 14.390625 -12.953125 C 15.210938 -12.222656 15.851562 -11.394531 16.3125 -10.46875 C 16.78125 -9.550781 17.015625 -8.472656 17.015625 -7.234375 C 17.015625 -4.941406 16.269531 -3.113281 14.78125 -1.75 C 13.289062 -0.382812 11.332031 0.296875 8.90625 0.296875 Z M 8.90625 0.296875 "/></g></g></g><g fill="#000000" fill-opacity="1"><g transform="translate(180.282394, 112.915682)"><g><path d="M 17.671875 -26.53125 C 17.835938 -26.53125 17.972656 -26.476562 18.078125 -26.375 C 18.179688 -26.28125 18.234375 -26.144531 18.234375 -25.96875 L 18.234375 -21 C 18.234375 -20.820312 18.179688 -20.679688 18.078125 -20.578125 C 17.972656 -20.484375 17.835938 -20.4375 17.671875 -20.4375 L 13.1875 -20.4375 C 13.039062 -20.4375 12.96875 -20.359375 12.96875 -20.203125 L 12.96875 -0.5625 C 12.96875 -0.382812 12.914062 -0.242188 12.8125 -0.140625 C 12.707031 -0.046875 12.566406 0 12.390625 0 L 6.40625 0 C 6.226562 0 6.085938 -0.046875 5.984375 -0.140625 C 5.890625 -0.242188 5.84375 -0.382812 5.84375 -0.5625 L 5.84375 -20.203125 C 5.84375 -20.359375 5.765625 -20.4375 5.609375 -20.4375 L 1.25 -20.4375 C 1.070312 -20.4375 0.929688 -20.484375 0.828125 -20.578125 C 0.734375 -20.679688 0.6875 -20.820312 0.6875 -21 L 0.6875 -25.96875 C 0.6875 -26.144531 0.734375 -26.28125 0.828125 -26.375 C 0.929688 -26.476562 1.070312 -26.53125 1.25 -26.53125 Z M 17.671875 -26.53125 "/></g></g></g><g fill="#000000" fill-opacity="1"><g transform="translate(47.641952, 125.168692)"><g><path d="M 3.890625 0 C 3.796875 0 3.742188 -0.0390625 3.734375 -0.125 L 3.515625 -1.328125 C 3.515625 -1.367188 3.492188 -1.390625 3.453125 -1.390625 L 1.765625 -1.390625 C 1.722656 -1.390625 1.703125 -1.367188 1.703125 -1.328125 L 1.484375 -0.125 C 1.472656 -0.0390625 1.421875 0 1.328125 0 L 0.28125 0 C 0.175781 0 0.132812 -0.0507812 0.15625 -0.15625 L 1.859375 -7.921875 C 1.878906 -8.003906 1.929688 -8.046875 2.015625 -8.046875 L 3.234375 -8.046875 C 3.316406 -8.046875 3.363281 -8.003906 3.375 -7.921875 L 5.078125 -0.15625 L 5.078125 -0.109375 C 5.078125 -0.0351562 5.035156 0 4.953125 0 Z M 1.90625 -2.5 C 1.894531 -2.457031 1.914062 -2.4375 1.96875 -2.4375 L 3.25 -2.4375 C 3.289062 -2.4375 3.304688 -2.457031 3.296875 -2.5 L 2.640625 -6.125 C 2.628906 -6.144531 2.613281 -6.15625 2.59375 -6.15625 C 2.582031 -6.15625 2.570312 -6.144531 2.5625 -6.125 Z M 1.90625 -2.5 "/></g></g></g><g fill="#000000" fill-opacity="1"><g transform="translate(54.034179, 125.168692)"><g/></g></g><g fill="#000000" fill-opacity="1"><g transform="translate(57.483397, 125.168692)"><g><path d="M 0.765625 0 C 0.722656 0 0.6875 -0.0078125 0.65625 -0.03125 C 0.632812 -0.0625 0.625 -0.0976562 0.625 -0.140625 L 0.625 -7.90625 C 0.625 -7.945312 0.632812 -7.976562 0.65625 -8 C 0.6875 -8.03125 0.722656 -8.046875 0.765625 -8.046875 L 2.71875 -8.046875 C 3.382812 -8.046875 3.914062 -7.847656 4.3125 -7.453125 C 4.707031 -7.054688 4.90625 -6.523438 4.90625 -5.859375 L 4.90625 -2.203125 C 4.90625 -1.535156 4.707031 -1 4.3125 -0.59375 C 3.914062 -0.195312 3.382812 0 2.71875 0 Z M 1.953125 -1.203125 C 1.953125 -1.171875 1.972656 -1.15625 2.015625 -1.15625 L 2.703125 -1.15625 C 2.953125 -1.15625 3.15625 -1.253906 3.3125 -1.453125 C 3.46875 -1.660156 3.550781 -1.9375 3.5625 -2.28125 L 3.5625 -5.765625 C 3.5625 -6.117188 3.484375 -6.394531 3.328125 -6.59375 C 3.171875 -6.800781 2.957031 -6.90625 2.6875 -6.90625 L 2.015625 -6.90625 C 1.972656 -6.90625 1.953125 -6.882812 1.953125 -6.84375 Z M 1.953125 -1.203125 "/></g></g></g><g fill="#000000" fill-opacity="1"><g transform="translate(64.059565, 125.168692)"><g><path d="M 0.765625 0 C 0.722656 0 0.6875 -0.0078125 0.65625 -0.03125 C 0.632812 -0.0625 0.625 -0.0976562 0.625 -0.140625 L 0.625 -7.90625 C 0.625 -7.945312 0.632812 -7.976562 0.65625 -8 C 0.6875 -8.03125 0.722656 -8.046875 0.765625 -8.046875 L 1.8125 -8.046875 C 1.851562 -8.046875 1.882812 -8.03125 1.90625 -8 C 1.9375 -7.976562 1.953125 -7.945312 1.953125 -7.90625 L 1.953125 -0.140625 C 1.953125 -0.0976562 1.9375 -0.0625 1.90625 -0.03125 C 1.882812 -0.0078125 1.851562 0 1.8125 0 Z M 0.765625 0 "/></g></g></g><g fill="#000000" fill-opacity="1"><g transform="translate(67.7847, 125.168692)"><g><path d="M 2.640625 0.09375 C 1.992188 0.09375 1.472656 -0.09375 1.078125 -0.46875 C 0.679688 -0.851562 0.484375 -1.359375 0.484375 -1.984375 L 0.484375 -6.0625 C 0.484375 -6.6875 0.679688 -7.1875 1.078125 -7.5625 C 1.472656 -7.945312 1.992188 -8.140625 2.640625 -8.140625 C 3.296875 -8.140625 3.820312 -7.945312 4.21875 -7.5625 C 4.625 -7.1875 4.828125 -6.679688 4.828125 -6.046875 L 4.828125 -5.59375 C 4.828125 -5.5625 4.8125 -5.53125 4.78125 -5.5 C 4.757812 -5.476562 4.726562 -5.46875 4.6875 -5.46875 L 3.640625 -5.46875 C 3.597656 -5.46875 3.5625 -5.476562 3.53125 -5.5 C 3.507812 -5.53125 3.5 -5.5625 3.5 -5.59375 L 3.5 -6.078125 C 3.5 -6.347656 3.421875 -6.566406 3.265625 -6.734375 C 3.109375 -6.898438 2.898438 -6.984375 2.640625 -6.984375 C 2.390625 -6.984375 2.1875 -6.898438 2.03125 -6.734375 C 1.882812 -6.566406 1.8125 -6.347656 1.8125 -6.078125 L 1.8125 -1.984375 C 1.8125 -1.703125 1.882812 -1.476562 2.03125 -1.3125 C 2.1875 -1.144531 2.390625 -1.0625 2.640625 -1.0625 C 2.898438 -1.0625 3.109375 -1.144531 3.265625 -1.3125 C 3.421875 -1.476562 3.5 -1.703125 3.5 -1.984375 L 3.5 -3.078125 C 3.5 -3.117188 3.476562 -3.140625 3.4375 -3.140625 L 2.734375 -3.140625 C 2.691406 -3.140625 2.65625 -3.148438 2.625 -3.171875 C 2.601562 -3.203125 2.59375 -3.238281 2.59375 -3.28125 L 2.59375 -4.109375 C 2.59375 -4.148438 2.601562 -4.179688 2.625 -4.203125 C 2.65625 -4.234375 2.691406 -4.25 2.734375 -4.25 L 4.6875 -4.25 C 4.726562 -4.25 4.757812 -4.234375 4.78125 -4.203125 C 4.8125 -4.179688 4.828125 -4.148438 4.828125 -4.109375 L 4.828125 -1.984375 C 4.828125 -1.359375 4.625 -0.851562 4.21875 -0.46875 C 3.820312 -0.09375 3.296875 0.09375 2.640625 0.09375 Z M 2.640625 0.09375 "/></g></g></g><g fill="#000000" fill-opacity="1"><g transform="translate(74.24591, 125.168692)"><g><path d="M 0.765625 0 C 0.722656 0 0.6875 -0.0078125 0.65625 -0.03125 C 0.632812 -0.0625 0.625 -0.0976562 0.625 -0.140625 L 0.625 -7.90625 C 0.625 -7.945312 0.632812 -7.976562 0.65625 -8 C 0.6875 -8.03125 0.722656 -8.046875 0.765625 -8.046875 L 1.8125 -8.046875 C 1.851562 -8.046875 1.882812 -8.03125 1.90625 -8 C 1.9375 -7.976562 1.953125 -7.945312 1.953125 -7.90625 L 1.953125 -0.140625 C 1.953125 -0.0976562 1.9375 -0.0625 1.90625 -0.03125 C 1.882812 -0.0078125 1.851562 0 1.8125 0 Z M 0.765625 0 "/></g></g></g><g fill="#000000" fill-opacity="1"><g transform="translate(77.971045, 125.168692)"><g><path d="M 4.75 -8.046875 C 4.789062 -8.046875 4.820312 -8.03125 4.84375 -8 C 4.875 -7.976562 4.890625 -7.945312 4.890625 -7.90625 L 4.890625 -7.03125 C 4.890625 -7 4.875 -6.96875 4.84375 -6.9375 C 4.820312 -6.914062 4.789062 -6.90625 4.75 -6.90625 L 3.28125 -6.90625 C 3.25 -6.90625 3.234375 -6.882812 3.234375 -6.84375 L 3.234375 -0.140625 C 3.234375 -0.0976562 3.21875 -0.0625 3.1875 -0.03125 C 3.164062 -0.0078125 3.132812 0 3.09375 0 L 2.03125 0 C 2 0 1.96875 -0.0078125 1.9375 -0.03125 C 1.90625 -0.0625 1.890625 -0.0976562 1.890625 -0.140625 L 1.890625 -6.84375 C 1.890625 -6.882812 1.875 -6.90625 1.84375 -6.90625 L 0.453125 -6.90625 C 0.421875 -6.90625 0.390625 -6.914062 0.359375 -6.9375 C 0.335938 -6.96875 0.328125 -7 0.328125 -7.03125 L 0.328125 -7.90625 C 0.328125 -7.945312 0.335938 -7.976562 0.359375 -8 C 0.390625 -8.03125 0.421875 -8.046875 0.453125 -8.046875 Z M 4.75 -8.046875 "/></g></g></g><g fill="#000000" fill-opacity="1"><g transform="translate(84.317289, 125.168692)"><g><path d="M 3.890625 0 C 3.796875 0 3.742188 -0.0390625 3.734375 -0.125 L 3.515625 -1.328125 C 3.515625 -1.367188 3.492188 -1.390625 3.453125 -1.390625 L 1.765625 -1.390625 C 1.722656 -1.390625 1.703125 -1.367188 1.703125 -1.328125 L 1.484375 -0.125 C 1.472656 -0.0390625 1.421875 0 1.328125 0 L 0.28125 0 C 0.175781 0 0.132812 -0.0507812 0.15625 -0.15625 L 1.859375 -7.921875 C 1.878906 -8.003906 1.929688 -8.046875 2.015625 -8.046875 L 3.234375 -8.046875 C 3.316406 -8.046875 3.363281 -8.003906 3.375 -7.921875 L 5.078125 -0.15625 L 5.078125 -0.109375 C 5.078125 -0.0351562 5.035156 0 4.953125 0 Z M 1.90625 -2.5 C 1.894531 -2.457031 1.914062 -2.4375 1.96875 -2.4375 L 3.25 -2.4375 C 3.289062 -2.4375 3.304688 -2.457031 3.296875 -2.5 L 2.640625 -6.125 C 2.628906 -6.144531 2.613281 -6.15625 2.59375 -6.15625 C 2.582031 -6.15625 2.570312 -6.144531 2.5625 -6.125 Z M 1.90625 -2.5 "/></g></g></g><g fill="#000000" fill-opacity="1"><g transform="translate(90.709514, 125.168692)"><g><path d="M 0.765625 0 C 0.722656 0 0.6875 -0.0078125 0.65625 -0.03125 C 0.632812 -0.0625 0.625 -0.0976562 0.625 -0.140625 L 0.625 -7.90625 C 0.625 -7.945312 0.632812 -7.976562 0.65625 -8 C 0.6875 -8.03125 0.722656 -8.046875 0.765625 -8.046875 L 1.8125 -8.046875 C 1.851562 -8.046875 1.882812 -8.03125 1.90625 -8 C 1.9375 -7.976562 1.953125 -7.945312 1.953125 -7.90625 L 1.953125 -1.203125 C 1.953125 -1.171875 1.972656 -1.15625 2.015625 -1.15625 L 4.5 -1.15625 C 4.53125 -1.15625 4.5625 -1.140625 4.59375 -1.109375 C 4.625 -1.078125 4.640625 -1.046875 4.640625 -1.015625 L 4.640625 -0.140625 C 4.640625 -0.0976562 4.625 -0.0625 4.59375 -0.03125 C 4.5625 -0.0078125 4.53125 0 4.5 0 Z M 0.765625 0 "/></g></g></g><g fill="#000000" fill-opacity="1"><g transform="translate(96.630404, 125.168692)"><g/></g></g><g fill="#000000" fill-opacity="1"><g transform="translate(100.079624, 125.168692)"><g><path d="M 4.234375 -7.953125 C 4.273438 -8.015625 4.332031 -8.046875 4.40625 -8.046875 L 5.46875 -8.046875 C 5.5 -8.046875 5.523438 -8.03125 5.546875 -8 C 5.578125 -7.976562 5.59375 -7.945312 5.59375 -7.90625 L 5.59375 -0.140625 C 5.59375 -0.0976562 5.578125 -0.0625 5.546875 -0.03125 C 5.523438 -0.0078125 5.5 0 5.46875 0 L 4.40625 0 C 4.363281 0 4.328125 -0.0078125 4.296875 -0.03125 C 4.273438 -0.0625 4.265625 -0.0976562 4.265625 -0.140625 L 4.265625 -5.5625 C 4.265625 -5.59375 4.253906 -5.609375 4.234375 -5.609375 C 4.222656 -5.609375 4.210938 -5.597656 4.203125 -5.578125 L 3.203125 -3.765625 C 3.160156 -3.703125 3.125 -3.671875 3.09375 -3.671875 C 3.0625 -3.671875 3.023438 -3.703125 2.984375 -3.765625 L 1.984375 -5.578125 C 1.972656 -5.597656 1.957031 -5.609375 1.9375 -5.609375 C 1.925781 -5.609375 1.921875 -5.59375 1.921875 -5.5625 L 1.921875 -0.140625 C 1.921875 -0.0976562 1.90625 -0.0625 1.875 -0.03125 C 1.851562 -0.0078125 1.820312 0 1.78125 0 L 0.71875 0 C 0.6875 0 0.65625 -0.0078125 0.625 -0.03125 C 0.601562 -0.0625 0.59375 -0.0976562 0.59375 -0.140625 L 0.59375 -7.90625 C 0.59375 -7.945312 0.601562 -7.976562 0.625 -8 C 0.65625 -8.03125 0.6875 -8.046875 0.71875 -8.046875 L 1.78125 -8.046875 C 1.851562 -8.046875 1.910156 -8.015625 1.953125 -7.953125 L 3.078125 -5.984375 C 3.097656 -5.960938 3.117188 -5.960938 3.140625 -5.984375 Z M 4.234375 -7.953125 "/></g></g></g><g fill="#000000" fill-opacity="1"><g transform="translate(107.414537, 125.168692)"><g><path d="M 3.890625 0 C 3.796875 0 3.742188 -0.0390625 3.734375 -0.125 L 3.515625 -1.328125 C 3.515625 -1.367188 3.492188 -1.390625 3.453125 -1.390625 L 1.765625 -1.390625 C 1.722656 -1.390625 1.703125 -1.367188 1.703125 -1.328125 L 1.484375 -0.125 C 1.472656 -0.0390625 1.421875 0 1.328125 0 L 0.28125 0 C 0.175781 0 0.132812 -0.0507812 0.15625 -0.15625 L 1.859375 -7.921875 C 1.878906 -8.003906 1.929688 -8.046875 2.015625 -8.046875 L 3.234375 -8.046875 C 3.316406 -8.046875 3.363281 -8.003906 3.375 -7.921875 L 5.078125 -0.15625 L 5.078125 -0.109375 C 5.078125 -0.0351562 5.035156 0 4.953125 0 Z M 1.90625 -2.5 C 1.894531 -2.457031 1.914062 -2.4375 1.96875 -2.4375 L 3.25 -2.4375 C 3.289062 -2.4375 3.304688 -2.457031 3.296875 -2.5 L 2.640625 -6.125 C 2.628906 -6.144531 2.613281 -6.15625 2.59375 -6.15625 C 2.582031 -6.15625 2.570312 -6.144531 2.5625 -6.125 Z M 1.90625 -2.5 "/></g></g></g><g fill="#000000" fill-opacity="1"><g transform="translate(113.806766, 125.168692)"><g><path d="M 3.8125 0 C 3.726562 0 3.675781 -0.0351562 3.65625 -0.109375 L 2.671875 -3.421875 C 2.660156 -3.453125 2.644531 -3.46875 2.625 -3.46875 L 2.015625 -3.46875 C 1.972656 -3.46875 1.953125 -3.445312 1.953125 -3.40625 L 1.953125 -0.140625 C 1.953125 -0.0976562 1.9375 -0.0625 1.90625 -0.03125 C 1.882812 -0.0078125 1.851562 0 1.8125 0 L 0.765625 0 C 0.722656 0 0.6875 -0.0078125 0.65625 -0.03125 C 0.632812 -0.0625 0.625 -0.0976562 0.625 -0.140625 L 0.625 -7.90625 C 0.625 -7.945312 0.632812 -7.976562 0.65625 -8 C 0.6875 -8.03125 0.722656 -8.046875 0.765625 -8.046875 L 2.921875 -8.046875 C 3.328125 -8.046875 3.6875 -7.945312 4 -7.75 C 4.3125 -7.5625 4.550781 -7.285156 4.71875 -6.921875 C 4.894531 -6.566406 4.984375 -6.160156 4.984375 -5.703125 C 4.984375 -5.222656 4.890625 -4.8125 4.703125 -4.46875 C 4.515625 -4.125 4.257812 -3.863281 3.9375 -3.6875 C 3.90625 -3.6875 3.894531 -3.664062 3.90625 -3.625 L 5.03125 -0.15625 C 5.03125 -0.144531 5.03125 -0.128906 5.03125 -0.109375 C 5.03125 -0.0351562 4.988281 0 4.90625 0 Z M 2.015625 -6.90625 C 1.972656 -6.90625 1.953125 -6.882812 1.953125 -6.84375 L 1.953125 -4.546875 C 1.953125 -4.515625 1.972656 -4.5 2.015625 -4.5 L 2.71875 -4.5 C 2.988281 -4.5 3.207031 -4.601562 3.375 -4.8125 C 3.550781 -5.03125 3.640625 -5.320312 3.640625 -5.6875 C 3.640625 -6.0625 3.550781 -6.359375 3.375 -6.578125 C 3.207031 -6.796875 2.988281 -6.90625 2.71875 -6.90625 Z M 2.015625 -6.90625 "/></g></g></g><g fill="#000000" fill-opacity="1"><g transform="translate(120.256478, 125.168692)"><g><path d="M 0.765625 0 C 0.722656 0 0.6875 -0.0078125 0.65625 -0.03125 C 0.632812 -0.0625 0.625 -0.0976562 0.625 -0.140625 L 0.625 -7.90625 C 0.625 -7.945312 0.632812 -7.976562 0.65625 -8 C 0.6875 -8.03125 0.722656 -8.046875 0.765625 -8.046875 L 1.8125 -8.046875 C 1.851562 -8.046875 1.882812 -8.03125 1.90625 -8 C 1.9375 -7.976562 1.953125 -7.945312 1.953125 -7.90625 L 1.953125 -4.734375 C 1.953125 -4.703125 1.957031 -4.6875 1.96875 -4.6875 C 1.988281 -4.6875 2.007812 -4.695312 2.03125 -4.71875 L 3.75 -7.953125 C 3.789062 -8.015625 3.847656 -8.046875 3.921875 -8.046875 L 5.0625 -8.046875 C 5.113281 -8.046875 5.144531 -8.03125 5.15625 -8 C 5.175781 -7.96875 5.175781 -7.929688 5.15625 -7.890625 L 3.421875 -4.65625 C 3.421875 -4.625 3.421875 -4.601562 3.421875 -4.59375 L 5.28125 -0.15625 C 5.289062 -0.144531 5.296875 -0.125 5.296875 -0.09375 C 5.296875 -0.03125 5.253906 0 5.171875 0 L 4.03125 0 C 3.945312 0 3.894531 -0.0351562 3.875 -0.109375 L 2.515625 -3.421875 C 2.503906 -3.453125 2.492188 -3.460938 2.484375 -3.453125 C 2.472656 -3.453125 2.457031 -3.441406 2.4375 -3.421875 L 1.984375 -2.65625 C 1.960938 -2.625 1.953125 -2.601562 1.953125 -2.59375 L 1.953125 -0.140625 C 1.953125 -0.0976562 1.9375 -0.0625 1.90625 -0.03125 C 1.882812 -0.0078125 1.851562 0 1.8125 0 Z M 0.765625 0 "/></g></g></g><g fill="#000000" fill-opacity="1"><g transform="translate(126.890131, 125.168692)"><g><path d="M 4.640625 -7.03125 C 4.640625 -7 4.625 -6.96875 4.59375 -6.9375 C 4.5625 -6.914062 4.53125 -6.90625 4.5 -6.90625 L 2.015625 -6.90625 C 1.972656 -6.90625 1.953125 -6.882812 1.953125 -6.84375 L 1.953125 -4.671875 C 1.953125 -4.628906 1.972656 -4.609375 2.015625 -4.609375 L 3.484375 -4.609375 C 3.523438 -4.609375 3.554688 -4.59375 3.578125 -4.5625 C 3.609375 -4.539062 3.625 -4.507812 3.625 -4.46875 L 3.625 -3.59375 C 3.625 -3.550781 3.609375 -3.515625 3.578125 -3.484375 C 3.554688 -3.460938 3.523438 -3.453125 3.484375 -3.453125 L 2.015625 -3.453125 C 1.972656 -3.453125 1.953125 -3.429688 1.953125 -3.390625 L 1.953125 -1.203125 C 1.953125 -1.171875 1.972656 -1.15625 2.015625 -1.15625 L 4.5 -1.15625 C 4.53125 -1.15625 4.5625 -1.140625 4.59375 -1.109375 C 4.625 -1.078125 4.640625 -1.046875 4.640625 -1.015625 L 4.640625 -0.140625 C 4.640625 -0.0976562 4.625 -0.0625 4.59375 -0.03125 C 4.5625 -0.0078125 4.53125 0 4.5 0 L 0.765625 0 C 0.722656 0 0.6875 -0.0078125 0.65625 -0.03125 C 0.632812 -0.0625 0.625 -0.0976562 0.625 -0.140625 L 0.625 -7.90625 C 0.625 -7.945312 0.632812 -7.976562 0.65625 -8 C 0.6875 -8.03125 0.722656 -8.046875 0.765625 -8.046875 L 4.5 -8.046875 C 4.53125 -8.046875 4.5625 -8.03125 4.59375 -8 C 4.625 -7.976562 4.640625 -7.945312 4.640625 -7.90625 Z M 4.640625 -7.03125 "/></g></g></g><g fill="#000000" fill-opacity="1"><g transform="translate(133.040947, 125.168692)"><g><path d="M 4.75 -8.046875 C 4.789062 -8.046875 4.820312 -8.03125 4.84375 -8 C 4.875 -7.976562 4.890625 -7.945312 4.890625 -7.90625 L 4.890625 -7.03125 C 4.890625 -7 4.875 -6.96875 4.84375 -6.9375 C 4.820312 -6.914062 4.789062 -6.90625 4.75 -6.90625 L 3.28125 -6.90625 C 3.25 -6.90625 3.234375 -6.882812 3.234375 -6.84375 L 3.234375 -0.140625 C 3.234375 -0.0976562 3.21875 -0.0625 3.1875 -0.03125 C 3.164062 -0.0078125 3.132812 0 3.09375 0 L 2.03125 0 C 2 0 1.96875 -0.0078125 1.9375 -0.03125 C 1.90625 -0.0625 1.890625 -0.0976562 1.890625 -0.140625 L 1.890625 -6.84375 C 1.890625 -6.882812 1.875 -6.90625 1.84375 -6.90625 L 0.453125 -6.90625 C 0.421875 -6.90625 0.390625 -6.914062 0.359375 -6.9375 C 0.335938 -6.96875 0.328125 -7 0.328125 -7.03125 L 0.328125 -7.90625 C 0.328125 -7.945312 0.335938 -7.976562 0.359375 -8 C 0.390625 -8.03125 0.421875 -8.046875 0.453125 -8.046875 Z M 4.75 -8.046875 "/></g></g></g><g fill="#000000" fill-opacity="1"><g transform="translate(139.387193, 125.168692)"><g><path d="M 0.765625 0 C 0.722656 0 0.6875 -0.0078125 0.65625 -0.03125 C 0.632812 -0.0625 0.625 -0.0976562 0.625 -0.140625 L 0.625 -7.90625 C 0.625 -7.945312 0.632812 -7.976562 0.65625 -8 C 0.6875 -8.03125 0.722656 -8.046875 0.765625 -8.046875 L 1.8125 -8.046875 C 1.851562 -8.046875 1.882812 -8.03125 1.90625 -8 C 1.9375 -7.976562 1.953125 -7.945312 1.953125 -7.90625 L 1.953125 -0.140625 C 1.953125 -0.0976562 1.9375 -0.0625 1.90625 -0.03125 C 1.882812 -0.0078125 1.851562 0 1.8125 0 Z M 0.765625 0 "/></g></g></g><g fill="#000000" fill-opacity="1"><g transform="translate(143.112331, 125.168692)"><g><path d="M 3.890625 -7.90625 C 3.890625 -7.945312 3.898438 -7.976562 3.921875 -8 C 3.953125 -8.03125 3.988281 -8.046875 4.03125 -8.046875 L 5.078125 -8.046875 C 5.109375 -8.046875 5.132812 -8.03125 5.15625 -8 C 5.1875 -7.976562 5.203125 -7.945312 5.203125 -7.90625 L 5.203125 -0.140625 C 5.203125 -0.0976562 5.1875 -0.0625 5.15625 -0.03125 C 5.132812 -0.0078125 5.109375 0 5.078125 0 L 3.859375 0 C 3.785156 0 3.738281 -0.0351562 3.71875 -0.109375 L 2 -4.984375 C 1.988281 -5.015625 1.972656 -5.023438 1.953125 -5.015625 C 1.941406 -5.015625 1.9375 -5.003906 1.9375 -4.984375 L 1.9375 -0.140625 C 1.9375 -0.0976562 1.921875 -0.0625 1.890625 -0.03125 C 1.867188 -0.0078125 1.84375 0 1.8125 0 L 0.765625 0 C 0.722656 0 0.6875 -0.0078125 0.65625 -0.03125 C 0.632812 -0.0625 0.625 -0.0976562 0.625 -0.140625 L 0.625 -7.90625 C 0.625 -7.945312 0.632812 -7.976562 0.65625 -8 C 0.6875 -8.03125 0.722656 -8.046875 0.765625 -8.046875 L 1.9375 -8.046875 C 2.019531 -8.046875 2.070312 -8.007812 2.09375 -7.9375 L 3.8125 -3.09375 C 3.820312 -3.070312 3.835938 -3.0625 3.859375 -3.0625 C 3.878906 -3.070312 3.890625 -3.085938 3.890625 -3.109375 Z M 3.890625 -7.90625 "/></g></g></g><g fill="#000000" fill-opacity="1"><g transform="translate(150.090863, 125.168692)"><g><path d="M 2.640625 0.09375 C 1.992188 0.09375 1.472656 -0.09375 1.078125 -0.46875 C 0.679688 -0.851562 0.484375 -1.359375 0.484375 -1.984375 L 0.484375 -6.0625 C 0.484375 -6.6875 0.679688 -7.1875 1.078125 -7.5625 C 1.472656 -7.945312 1.992188 -8.140625 2.640625 -8.140625 C 3.296875 -8.140625 3.820312 -7.945312 4.21875 -7.5625 C 4.625 -7.1875 4.828125 -6.679688 4.828125 -6.046875 L 4.828125 -5.59375 C 4.828125 -5.5625 4.8125 -5.53125 4.78125 -5.5 C 4.757812 -5.476562 4.726562 -5.46875 4.6875 -5.46875 L 3.640625 -5.46875 C 3.597656 -5.46875 3.5625 -5.476562 3.53125 -5.5 C 3.507812 -5.53125 3.5 -5.5625 3.5 -5.59375 L 3.5 -6.078125 C 3.5 -6.347656 3.421875 -6.566406 3.265625 -6.734375 C 3.109375 -6.898438 2.898438 -6.984375 2.640625 -6.984375 C 2.390625 -6.984375 2.1875 -6.898438 2.03125 -6.734375 C 1.882812 -6.566406 1.8125 -6.347656 1.8125 -6.078125 L 1.8125 -1.984375 C 1.8125 -1.703125 1.882812 -1.476562 2.03125 -1.3125 C 2.1875 -1.144531 2.390625 -1.0625 2.640625 -1.0625 C 2.898438 -1.0625 3.109375 -1.144531 3.265625 -1.3125 C 3.421875 -1.476562 3.5 -1.703125 3.5 -1.984375 L 3.5 -3.078125 C 3.5 -3.117188 3.476562 -3.140625 3.4375 -3.140625 L 2.734375 -3.140625 C 2.691406 -3.140625 2.65625 -3.148438 2.625 -3.171875 C 2.601562 -3.203125 2.59375 -3.238281 2.59375 -3.28125 L 2.59375 -4.109375 C 2.59375 -4.148438 2.601562 -4.179688 2.625 -4.203125 C 2.65625 -4.234375 2.691406 -4.25 2.734375 -4.25 L 4.6875 -4.25 C 4.726562 -4.25 4.757812 -4.234375 4.78125 -4.203125 C 4.8125 -4.179688 4.828125 -4.148438 4.828125 -4.109375 L 4.828125 -1.984375 C 4.828125 -1.359375 4.625 -0.851562 4.21875 -0.46875 C 3.820312 -0.09375 3.296875 0.09375 2.640625 0.09375 Z M 2.640625 0.09375 "/></g></g></g><g fill="#000000" fill-opacity="1"><g transform="translate(156.552071, 125.168692)"><g/></g></g><g fill="#000000" fill-opacity="1"><g transform="translate(160.001286, 125.168692)"><g><path d="M 3.890625 0 C 3.796875 0 3.742188 -0.0390625 3.734375 -0.125 L 3.515625 -1.328125 C 3.515625 -1.367188 3.492188 -1.390625 3.453125 -1.390625 L 1.765625 -1.390625 C 1.722656 -1.390625 1.703125 -1.367188 1.703125 -1.328125 L 1.484375 -0.125 C 1.472656 -0.0390625 1.421875 0 1.328125 0 L 0.28125 0 C 0.175781 0 0.132812 -0.0507812 0.15625 -0.15625 L 1.859375 -7.921875 C 1.878906 -8.003906 1.929688 -8.046875 2.015625 -8.046875 L 3.234375 -8.046875 C 3.316406 -8.046875 3.363281 -8.003906 3.375 -7.921875 L 5.078125 -0.15625 L 5.078125 -0.109375 C 5.078125 -0.0351562 5.035156 0 4.953125 0 Z M 1.90625 -2.5 C 1.894531 -2.457031 1.914062 -2.4375 1.96875 -2.4375 L 3.25 -2.4375 C 3.289062 -2.4375 3.304688 -2.457031 3.296875 -2.5 L 2.640625 -6.125 C 2.628906 -6.144531 2.613281 -6.15625 2.59375 -6.15625 C 2.582031 -6.15625 2.570312 -6.144531 2.5625 -6.125 Z M 1.90625 -2.5 "/></g></g></g><g fill="#000000" fill-opacity="1"><g transform="translate(166.393509, 125.168692)"><g><path d="M 2.640625 0.09375 C 1.992188 0.09375 1.472656 -0.09375 1.078125 -0.46875 C 0.679688 -0.851562 0.484375 -1.359375 0.484375 -1.984375 L 0.484375 -6.0625 C 0.484375 -6.6875 0.679688 -7.1875 1.078125 -7.5625 C 1.472656 -7.945312 1.992188 -8.140625 2.640625 -8.140625 C 3.296875 -8.140625 3.820312 -7.945312 4.21875 -7.5625 C 4.625 -7.1875 4.828125 -6.679688 4.828125 -6.046875 L 4.828125 -5.59375 C 4.828125 -5.5625 4.8125 -5.53125 4.78125 -5.5 C 4.757812 -5.476562 4.726562 -5.46875 4.6875 -5.46875 L 3.640625 -5.46875 C 3.597656 -5.46875 3.5625 -5.476562 3.53125 -5.5 C 3.507812 -5.53125 3.5 -5.5625 3.5 -5.59375 L 3.5 -6.078125 C 3.5 -6.347656 3.421875 -6.566406 3.265625 -6.734375 C 3.109375 -6.898438 2.898438 -6.984375 2.640625 -6.984375 C 2.390625 -6.984375 2.1875 -6.898438 2.03125 -6.734375 C 1.882812 -6.566406 1.8125 -6.347656 1.8125 -6.078125 L 1.8125 -1.984375 C 1.8125 -1.703125 1.882812 -1.476562 2.03125 -1.3125 C 2.1875 -1.144531 2.390625 -1.0625 2.640625 -1.0625 C 2.898438 -1.0625 3.109375 -1.144531 3.265625 -1.3125 C 3.421875 -1.476562 3.5 -1.703125 3.5 -1.984375 L 3.5 -3.078125 C 3.5 -3.117188 3.476562 -3.140625 3.4375 -3.140625 L 2.734375 -3.140625 C 2.691406 -3.140625 2.65625 -3.148438 2.625 -3.171875 C 2.601562 -3.203125 2.59375 -3.238281 2.59375 -3.28125 L 2.59375 -4.109375 C 2.59375 -4.148438 2.601562 -4.179688 2.625 -4.203125 C 2.65625 -4.234375 2.691406 -4.25 2.734375 -4.25 L 4.6875 -4.25 C 4.726562 -4.25 4.757812 -4.234375 4.78125 -4.203125 C 4.8125 -4.179688 4.828125 -4.148438 4.828125 -4.109375 L 4.828125 -1.984375 C 4.828125 -1.359375 4.625 -0.851562 4.21875 -0.46875 C 3.820312 -0.09375 3.296875 0.09375 2.640625 0.09375 Z M 2.640625 0.09375 "/></g></g></g><g fill="#000000" fill-opacity="1"><g transform="translate(172.854717, 125.168692)"><g><path d="M 4.640625 -7.03125 C 4.640625 -7 4.625 -6.96875 4.59375 -6.9375 C 4.5625 -6.914062 4.53125 -6.90625 4.5 -6.90625 L 2.015625 -6.90625 C 1.972656 -6.90625 1.953125 -6.882812 1.953125 -6.84375 L 1.953125 -4.671875 C 1.953125 -4.628906 1.972656 -4.609375 2.015625 -4.609375 L 3.484375 -4.609375 C 3.523438 -4.609375 3.554688 -4.59375 3.578125 -4.5625 C 3.609375 -4.539062 3.625 -4.507812 3.625 -4.46875 L 3.625 -3.59375 C 3.625 -3.550781 3.609375 -3.515625 3.578125 -3.484375 C 3.554688 -3.460938 3.523438 -3.453125 3.484375 -3.453125 L 2.015625 -3.453125 C 1.972656 -3.453125 1.953125 -3.429688 1.953125 -3.390625 L 1.953125 -1.203125 C 1.953125 -1.171875 1.972656 -1.15625 2.015625 -1.15625 L 4.5 -1.15625 C 4.53125 -1.15625 4.5625 -1.140625 4.59375 -1.109375 C 4.625 -1.078125 4.640625 -1.046875 4.640625 -1.015625 L 4.640625 -0.140625 C 4.640625 -0.0976562 4.625 -0.0625 4.59375 -0.03125 C 4.5625 -0.0078125 4.53125 0 4.5 0 L 0.765625 0 C 0.722656 0 0.6875 -0.0078125 0.65625 -0.03125 C 0.632812 -0.0625 0.625 -0.0976562 0.625 -0.140625 L 0.625 -7.90625 C 0.625 -7.945312 0.632812 -7.976562 0.65625 -8 C 0.6875 -8.03125 0.722656 -8.046875 0.765625 -8.046875 L 4.5 -8.046875 C 4.53125 -8.046875 4.5625 -8.03125 4.59375 -8 C 4.625 -7.976562 4.640625 -7.945312 4.640625 -7.90625 Z M 4.640625 -7.03125 "/></g></g></g><g fill="#000000" fill-opacity="1"><g transform="translate(179.005527, 125.168692)"><g><path d="M 3.890625 -7.90625 C 3.890625 -7.945312 3.898438 -7.976562 3.921875 -8 C 3.953125 -8.03125 3.988281 -8.046875 4.03125 -8.046875 L 5.078125 -8.046875 C 5.109375 -8.046875 5.132812 -8.03125 5.15625 -8 C 5.1875 -7.976562 5.203125 -7.945312 5.203125 -7.90625 L 5.203125 -0.140625 C 5.203125 -0.0976562 5.1875 -0.0625 5.15625 -0.03125 C 5.132812 -0.0078125 5.109375 0 5.078125 0 L 3.859375 0 C 3.785156 0 3.738281 -0.0351562 3.71875 -0.109375 L 2 -4.984375 C 1.988281 -5.015625 1.972656 -5.023438 1.953125 -5.015625 C 1.941406 -5.015625 1.9375 -5.003906 1.9375 -4.984375 L 1.9375 -0.140625 C 1.9375 -0.0976562 1.921875 -0.0625 1.890625 -0.03125 C 1.867188 -0.0078125 1.84375 0 1.8125 0 L 0.765625 0 C 0.722656 0 0.6875 -0.0078125 0.65625 -0.03125 C 0.632812 -0.0625 0.625 -0.0976562 0.625 -0.140625 L 0.625 -7.90625 C 0.625 -7.945312 0.632812 -7.976562 0.65625 -8 C 0.6875 -8.03125 0.722656 -8.046875 0.765625 -8.046875 L 1.9375 -8.046875 C 2.019531 -8.046875 2.070312 -8.007812 2.09375 -7.9375 L 3.8125 -3.09375 C 3.820312 -3.070312 3.835938 -3.0625 3.859375 -3.0625 C 3.878906 -3.070312 3.890625 -3.085938 3.890625 -3.109375 Z M 3.890625 -7.90625 "/></g></g></g><g fill="#000000" fill-opacity="1"><g transform="translate(185.984053, 125.168692)"><g><path d="M 2.640625 0.09375 C 1.992188 0.09375 1.472656 -0.101562 1.078125 -0.5 C 0.679688 -0.894531 0.484375 -1.414062 0.484375 -2.0625 L 0.484375 -5.984375 C 0.484375 -6.648438 0.679688 -7.175781 1.078125 -7.5625 C 1.472656 -7.945312 1.992188 -8.140625 2.640625 -8.140625 C 3.304688 -8.140625 3.835938 -7.945312 4.234375 -7.5625 C 4.628906 -7.175781 4.828125 -6.648438 4.828125 -5.984375 L 4.828125 -5.859375 C 4.828125 -5.816406 4.8125 -5.78125 4.78125 -5.75 C 4.757812 -5.71875 4.726562 -5.703125 4.6875 -5.703125 L 3.625 -5.65625 C 3.53125 -5.65625 3.484375 -5.703125 3.484375 -5.796875 L 3.484375 -6.078125 C 3.484375 -6.347656 3.40625 -6.566406 3.25 -6.734375 C 3.101562 -6.898438 2.898438 -6.984375 2.640625 -6.984375 C 2.398438 -6.984375 2.203125 -6.898438 2.046875 -6.734375 C 1.890625 -6.566406 1.8125 -6.347656 1.8125 -6.078125 L 1.8125 -1.96875 C 1.8125 -1.695312 1.890625 -1.476562 2.046875 -1.3125 C 2.203125 -1.144531 2.398438 -1.0625 2.640625 -1.0625 C 2.898438 -1.0625 3.101562 -1.144531 3.25 -1.3125 C 3.40625 -1.476562 3.484375 -1.695312 3.484375 -1.96875 L 3.484375 -2.25 C 3.484375 -2.289062 3.492188 -2.320312 3.515625 -2.34375 C 3.546875 -2.375 3.582031 -2.390625 3.625 -2.390625 L 4.6875 -2.34375 C 4.726562 -2.34375 4.757812 -2.328125 4.78125 -2.296875 C 4.8125 -2.273438 4.828125 -2.242188 4.828125 -2.203125 L 4.828125 -2.0625 C 4.828125 -1.414062 4.628906 -0.894531 4.234375 -0.5 C 3.835938 -0.101562 3.304688 0.09375 2.640625 0.09375 Z M 2.640625 0.09375 "/></g></g></g><g fill="#000000" fill-opacity="1"><g transform="translate(192.387778, 125.168692)"><g><path d="M 2.09375 -0.015625 C 2.050781 -0.015625 2.015625 -0.0234375 1.984375 -0.046875 C 1.960938 -0.078125 1.953125 -0.113281 1.953125 -0.15625 L 1.953125 -3.28125 L 1.9375 -3.359375 L 0.34375 -7.890625 C 0.332031 -7.898438 0.328125 -7.921875 0.328125 -7.953125 C 0.328125 -8.015625 0.367188 -8.046875 0.453125 -8.046875 L 1.5625 -8.046875 C 1.644531 -8.046875 1.695312 -8.007812 1.71875 -7.9375 L 2.59375 -4.984375 C 2.59375 -4.953125 2.597656 -4.9375 2.609375 -4.9375 C 2.628906 -4.9375 2.644531 -4.953125 2.65625 -4.984375 L 3.515625 -7.9375 C 3.535156 -8.007812 3.59375 -8.046875 3.6875 -8.046875 L 4.78125 -8.046875 C 4.832031 -8.046875 4.867188 -8.03125 4.890625 -8 C 4.910156 -7.976562 4.914062 -7.941406 4.90625 -7.890625 L 3.296875 -3.359375 L 3.28125 -3.28125 L 3.28125 -0.15625 C 3.28125 -0.113281 3.265625 -0.078125 3.234375 -0.046875 C 3.210938 -0.0234375 3.1875 -0.015625 3.15625 -0.015625 Z M 2.09375 -0.015625 "/></g></g></g><path stroke-linecap="butt" transform="matrix(0.53033, 0.53033, -0.53033, 0.53033, 84.597823, 24.132043)" fill="none" stroke-linejoin="miter" d="M 0.000568626 4.000455 L 93.346035 4.000455 " stroke="#000000" stroke-width="8" stroke-opacity="1" stroke-miterlimit="4"/><path stroke-linecap="butt" transform="matrix(0.53033, -0.53033, 0.53033, 0.53033, 80.280511, 180.80221)" fill="none" stroke-linejoin="miter" d="M 0.00204425 3.998923 L 92.957129 3.998923 " stroke="#000000" stroke-width="8" stroke-opacity="1" stroke-miterlimit="4"/><path stroke-linecap="butt" transform="matrix(-0.53033, 0.53033, -0.53033, -0.53033, 87.467488, 29.800012)" fill="none" stroke-linejoin="miter" d="M -0.000464768 3.997658 L 145.799806 4.001341 " stroke="#000000" stroke-width="8" stroke-opacity="1" stroke-miterlimit="4"/><path stroke-linecap="butt" transform="matrix(-0.53033, -0.53033, 0.53033, -0.53033, 84.265221, 185.318103)" fill="none" stroke-linejoin="miter" d="M 0.00121855 4.001553 L 151.605658 3.997871 " stroke="#000000" stroke-width="8" stroke-opacity="1" stroke-miterlimit="4"/></svg>